<?xml version="1.0" standalone="no"?><!DOCTYPE svg PUBLIC "-//W3C//DTD SVG 1.1//EN" "http://www.w3.org/Graphics/SVG/1.1/DTD/svg11.dtd"><svg t="1774951114796" class="icon" viewBox="0 0 1024 1024" version="1.1" xmlns="http://www.w3.org/2000/svg" p-id="2363" data-spm-anchor-id="a313x.manage_type_myprojects.0.i11.3a593a81fGGiDp" xmlns:xlink="http://www.w3.org/1999/xlink" width="200" height="200"><path d="M711.1 1024C711.1 1024 711.1 1024 711.1 1024L306 1024c-24.4 0-47.6-4.1-68.9-12.3-21.6-8.3-40.8-20.3-57-35.7-16.3-15.5-29.2-34.2-38.3-55.6-9.1-21.3-13.7-45.4-13.7-71.5L128.1 553.1c0-13.6 0.5-27.4 1.5-41.1 1.2-15.5 4.2-30.4 8.9-44.2 5.2-15.1 13.2-29 23.9-41.5 11.2-13 26-23.5 44-31.2 0.2-0.1 0.5-0.2 0.7-0.3C218.1 390.3 231.2 383.4 246 374.2c15.3-9.6 31.6-21.3 48.3-34.6 16.5-13.2 32.8-28.3 48.5-44.9 15.6-16.4 29.8-34 42.3-52.2 12-17.4 21.7-35.8 28.8-54.6 6.6-17.5 10-35.5 10-53.4 0-0.4 0-0.7 0-1.1 0.8-22.8 3.9-41.7 9.5-57.8 5.9-17 14.2-31.3 24.5-42.5 10.6-11.5 22.6-20.1 35.6-25.4 12.5-5.1 25.5-7.7 38.7-7.7 31.2 0 58.1 9.9 79.9 29.5 21.3 19.1 35.4 47.6 43.4 87.1 0.3 1.6 0.5 3.2 0.6 4.8 1.4 29.6-0.3 61.3-5.1 94.1-4.1 27.9-11.3 58.8-21.4 91.8-5.4 17.5-12.2 35-20.5 52.4l225.8 0c29.4 0 55.1 9.8 76.2 29.2 21.7 19.8 33.1 45.9 33.1 75.3l0 0c0 14.8-3.1 29.1-9.1 42.6-5.7 12.6-13.2 24-22.5 33.7-4.9 5.1-10.3 9.7-16.2 13.7 12.9 17.5 19.7 38.2 19.7 60.8 0 29-11.2 55.3-32.3 76-5 4.9-10.2 9.2-15.7 12.9 13.1 18 20 39.1 20 61.8 0 16.3-4.5 31.9-13.5 46.4-8.2 13.1-19.2 24.5-32.9 33.8-2.9 2-6 3.9-9.1 5.7 13.8 19.2 20.8 41.3 20.8 65.9 0 20.2-6.1 38.1-18 53.2-10.1 12.7-22.8 23.3-37.8 31.4-13.8 7.5-28.8 13.1-44.5 16.6C737.8 1022.2 723.7 1024 711.1 1024zM231.3 454c-8.8 3.8-15.7 8.5-20.4 14.1-5.4 6.3-9.3 13-11.9 20.4-3 8.6-4.9 18.2-5.6 28.3-0.9 12-1.4 24.2-1.4 36.3l0 295.8c0 17.5 2.9 33.1 8.6 46.4 5.7 13.5 13.4 24.7 23.6 34.3 10.2 9.7 21.9 17 35.8 22.3 14 5.3 29.5 8 46.1 8l405.1 0c0 0 0 0 0 0 7.9 0 17.2-1.2 27.8-3.6 10-2.2 19.4-5.8 28-10.4 7.5-4.1 13.5-9 18.2-15 2-2.5 4.2-6.2 4.2-13.5 0-12.9-3.8-23.3-11.9-32.6-7.1-8.1-15.6-11.8-27.6-11.8-17.7 0-32-14.3-32-32s14.3-32 32-32c10.4 0 20.6-1.5 30.4-4.5 9.7-2.9 18.3-6.9 25.6-11.8 6.3-4.3 11-9 14.4-14.6 2.7-4.3 3.9-8.3 3.9-12.6 0-11.9-4.2-21.6-13.1-30.3-9.1-8.9-19.7-13.1-33.2-13.1-17.7 0-32-14.3-32-32s14.3-32 32-32l29 0c12.9 0 23.1-4.2 32.2-13.1 8.9-8.7 13.1-18.4 13.1-30.3 0-11.8-3.9-20.7-12.6-28.8-9.2-8.6-19.6-12.6-32.8-12.6-17.7 0-32-14.3-32-32s14.3-32 32-32l28 0c5.9 0 11.6-1.2 17.2-3.6 5.8-2.5 10.4-5.7 14.2-9.7 4.3-4.5 7.7-9.6 10.4-15.6 2.3-5.2 3.5-10.6 3.5-16.4 0-11.6-3.8-20.3-12.3-28.1-9.2-8.5-19.7-12.4-33-12.4L554.4 423.5c-11.7 0-22.5-6.4-28.1-16.7-5.6-10.3-5.1-22.8 1.2-32.7 18.3-28.3 32-57.2 40.8-85.8 9.2-29.9 15.6-57.6 19.2-82.3 4.1-27.8 5.6-54.5 4.6-79.4-5-23.6-12.9-40.8-22.9-49.7-9.9-8.9-21.7-13.1-37.1-13.1-4.9 0-9.6 1-14.5 3-4.3 1.7-8.5 4.9-12.7 9.4-4.4 4.8-8.2 11.6-11.2 20.3-3.4 9.7-5.4 22.6-5.9 38.3-0.1 25.5-4.8 50.9-14.2 75.5-8.9 23.6-21 46.5-36 68.2-14.4 20.9-30.7 41.1-48.5 59.9-17.7 18.7-36.2 35.8-55 50.9C315.6 404.4 297.4 417.5 280 428.4 261.9 439.7 246 448.1 231.3 454z" p-id="2364" fill="#6382F4"></path></svg>