<?xml version="1.0" standalone="no"?><!DOCTYPE svg PUBLIC "-//W3C//DTD SVG 1.1//EN" "http://www.w3.org/Graphics/SVG/1.1/DTD/svg11.dtd"><svg t="1774950280517" class="icon" viewBox="0 0 1024 1024" version="1.1" xmlns="http://www.w3.org/2000/svg" p-id="1254" xmlns:xlink="http://www.w3.org/1999/xlink" width="200" height="200"><path d="M528.455298 1021.416751a21.595964 21.595964 0 0 1-18.082745-8.266398c-9.299697-9.299697-13.432896-26.349142-11.882947-54.248234a37.457114 37.457114 0 0 0-10.849646-26.865792l-1.54995-1.54995c-2.583249 1.54995-8.266398 7.233098-12.916246 23.765893l-0.51665 2.0666-1.54995 2.066599c-9.299697 13.432896-19.632694 16.016145-25.832492 16.016146a27.899092 27.899092 0 0 1-25.832492-19.116045c-13.432896-25.832492 7.233098-58.898083 23.765893-81.630676l0.51665-0.51665c13.949546-16.016145 19.116044-29.965691 26.349142-48.048436 3.616549-8.266398 6.716448-17.049445 11.366296-26.865792a91.602018 91.602018 0 0 1-11.366296 0.51665 29.965691 29.965691 0 0 1-24.799193-10.332997c-10.849647-11.882947-8.783047-30.482341-3.616549-63.547931-1.54995-9.299697-5.166498-9.299697-7.233098-9.299698a17.566095 17.566095 0 0 0-5.166498 0.51665h-3.099899a26.969122 26.969122 0 0 0-11.366297 5.166499 51.045005 51.045005 0 0 1-32.032291 10.849647 66.802825 66.802825 0 0 1-17.049445-2.0666h-1.549949c-2.583249 0-8.783047 0.51665-9.299697 2.583249-3.616549 19.116044-11.366297 45.981837-30.482342 61.481332l-2.583249 2.0666-3.616549 0.51665c-1.54995 0-2.583249 0.51665-4.133199 0.516649-12.916246 0-21.182644-11.366297-30.482341-23.249243-3.616549-4.133199-6.716448-8.783047-9.299697-11.366296l-2.066599-2.0666-1.54995-2.066599c-1.54995-2.066599-2.583249-3.616549-3.616549-3.616549s-4.133199 2.066599-5.166498 7.233098c-6.716448 19.116044-20.149344 30.998991-37.198789 30.998991a44.948537 44.948537 0 0 1-16.016146-3.616549l-2.066599-0.51665-2.066599-1.54995a35.33885 35.33885 0 0 0-21.182644-6.716448l-20.149344-2.066599 8.783047-19.116045c8.266398-17.049445 2.066599-30.998991-2.583249-34.615539-18.082745-13.949546-28.932392-30.482341-28.932392-48.048436 0-10.332997 3.616549-24.282543 20.149344-37.715439 17.566095-14.982846 17.049445-24.282543 6.716448-39.265389-8.783047-10.332997-14.982846-15.499495-23.249243-15.499495-9.299697 0-23.249243 6.716448-38.232089 18.082745a33.06559 33.06559 0 0 1-21.182643 8.266397 32.032291 32.032291 0 0 1-28.415742-17.049445 28.622402 28.622402 0 0 1 1.54995-29.965691A163.003027 163.003027 0 0 1 137.971342 498.567104a29.449041 29.449041 0 0 0 14.982846-17.566095v-2.583249c-17.049445-10.332997-31.515641-30.482341-20.149344-73.364279 4.649849-26.349142-2.583249-33.06559-11.366297-39.265388l-17.049445-10.332997 11.366297-10.849647a141.562059 141.562059 0 0 0 10.332997-46.498486 445.920484 445.920484 0 0 0-12.399597-76.464178l-1.0333-5.166498 1.54995-4.133199c11.366297-30.998991 21.699294-59.414733 44.431887-90.413724 21.182644-30.482341 52.698285-48.565086 84.213925-48.565085a92.996973 92.996973 0 0 1 35.13219 7.233097c8.266398 3.616549 28.415742 11.366297 38.232089 11.366297h2.066599a11.934612 11.934612 0 0 1 3.616549-2.583249 53.938244 53.938244 0 0 0-8.783047-9.299697c-11.882947-9.299697-26.865792-23.249243-24.799193-40.298689 1.54995-11.366297 9.299697-19.632694 23.249243-26.349142A139.857114 139.857114 0 0 1 362.610696 2.583249 124.977598 124.977598 0 0 1 442.794753 33.06559a185.993946 185.993946 0 0 0 68.71443 21.182644c32.54894 0 52.698285 16.016145 81.630676 38.232089a36.682139 36.682139 0 0 0 7.233098 5.166498 61.119677 61.119677 0 0 0 30.482341 10.332997c20.149344 0 41.331988-17.049445 59.931382-49.081735l27.899092 6.199798c3.616549 27.899092 10.332997 33.58224 11.366297 33.58224s12.916246-0.51665 37.198789-33.06559l2.583249-4.133199 4.649849-1.54995a37.560444 37.560444 0 0 1 12.916246-2.066599c17.049445 0 33.58224 10.332997 45.981836 25.832492 15.499495 20.149344 18.082745 48.048436 10.332997 72.330979l-0.51665 1.54995-0.516649 1.549949a8.163068 8.163068 0 0 0-0.51665 2.0666s1.54995 6.199798 21.182644 14.982845l3.616549-6.716448 14.982845 11.882947a144.661958 144.661958 0 0 1 54.764884 120.379415c-2.066599 41.331988-21.699294 76.980827-53.214934 97.130171l-1.54995 1.54995-2.066599 0.51665a23.352573 23.352573 0 0 0-17.049445 16.016145 47.790111 47.790111 0 0 0 2.583249 38.232089c19.632694 18.082745 37.198789 54.764884 32.54894 84.213925v0.51665c-4.133199 19.632694 6.716448 35.64884 24.799193 61.481332a296.402018 296.402018 0 0 1 30.482341 48.048436l4.649849 9.299697-7.233098 7.233098a172.096065 172.096065 0 0 0-13.949546 17.049445 22.990918 22.990918 0 0 1 14.982846-5.166499 19.787689 19.787689 0 0 1 17.049445 10.332997c5.166498 10.332997 2.583249 23.765893-6.716448 37.715439-24.282543 34.61554-21.699294 77.497477-17.049445 111.596368l1.549949 7.233098-4.649848 5.166498c-17.566095 19.632694-37.715439 28.932392-59.931383 28.932392-17.566095 0-35.64884-6.716448-56.314833-19.116045h-0.51665a26.969122 26.969122 0 0 0-14.982846-4.133199 64.116246 64.116246 0 0 0-35.13219 12.916247 45.775177 45.775177 0 0 1 28.415742 39.782038 49.598385 49.598385 0 0 1-43.915237 51.664985l-10.332997 1.549949-4.649849-8.783047c-24.282543-40.298688-47.015136-45.981837-61.997981-45.981837a61.997982 61.997982 0 0 0-16.016146 2.0666c-14.982846 2.583249-19.632694 7.233098-20.149344 8.783047a9.868012 9.868012 0 0 0 1.54995 5.166499l0.51665 0.51665c6.716448 13.949546 2.066599 33.58224-0.51665 43.915237-2.583249 8.266398-10.332997 27.899092-21.699294 35.648839l-10.332997 6.716448-8.783047-8.783047c-2.583249-2.066599-10.849647-10.332997-21.699294-10.332997a32.44561 32.44561 0 0 0-21.699294 10.849647c-15.086176 14.982846-25.419173 20.149344-35.235519 20.149344z m-18.599395-108.496468a68.146115 68.146115 0 0 1 17.566095 45.981836v1.0333a106.791524 106.791524 0 0 0 2.583249 30.998991c2.066599-1.54995 5.166498-3.616549 10.332997-7.233098a60.241372 60.241372 0 0 1 43.398587-19.116045 58.071443 58.071443 0 0 1 28.932392 8.266398 63.289606 63.289606 0 0 0 4.649849-11.882947c3.616549-11.882947 3.616549-19.116044 2.066599-21.699293a34.563875 34.563875 0 0 1-2.066599-31.515641c6.199798-12.916246 19.632694-21.182644 41.848637-24.799193a107.928153 107.928153 0 0 1 21.699294-2.583249c32.54894 0 58.898083 17.049445 82.147326 50.631685a19.529364 19.529364 0 0 0 8.783047-17.049445c-0.51665-10.332997-9.299697-16.016145-23.765893-16.016145a29.449041 29.449041 0 0 0-6.716448 0.51665l-13.432896-24.282543c23.249243-26.865792 52.698285-43.915237 80.080727-43.915237a59.363068 59.363068 0 0 1 31.515641 9.299697c15.499495 10.332997 27.899092 14.982846 39.265388 14.982846a47.170131 47.170131 0 0 0 33.06559-14.982846c-4.649849-35.64884-6.199798-79.047427 17.049445-117.279516h-3.616549a23.249243 23.249243 0 0 1-23.249243-14.982845c-6.199798-13.432896 0-28.932392 17.566095-50.115036a366.821393 366.821393 0 0 0-23.249243-34.615539c-19.116044-26.349142-37.198789-51.148335-30.482341-85.247225 2.583249-18.082745-10.849647-47.015136-24.282543-58.898083l-2.066599-2.0666-1.54995-2.583249a77.859132 77.859132 0 0 1-4.649849-65.614531 52.284965 52.284965 0 0 1 33.582241-31.51564c23.249243-16.016145 37.198789-42.365288 39.265388-73.364279a112.681332 112.681332 0 0 0-38.232089-90.413723l-2.066599-0.51665c-30.482341-10.849647-47.015136-22.215943-52.181635-37.715439a29.707366 29.707366 0 0 1 2.583249-25.832493 50.115035 50.115035 0 0 0-6.716448-44.431887 27.485772 27.485772 0 0 0-21.182643-13.432896c-21.699294 27.899092-40.298688 40.298688-57.348134 40.298689-7.233098 0-20.149344-2.583249-29.965691-19.116045a31.567306 31.567306 0 0 1-3.616549-7.233098c-20.149344 23.765893-42.365288 35.13219-66.13118 35.13219a86.177195 86.177195 0 0 1-47.015137-15.499495l-0.51665-0.51665h-2.583249c-2.583249-2.066599-5.166498-4.133199-8.266397-6.199799-26.349142-20.149344-40.298688-31.515641-63.031282-31.51564h-2.066599a225.001009 225.001009 0 0 1-82.147326-24.799193l-1.54995-0.51665-1.549949-1.549949a82.663976 82.663976 0 0 0-59.414733-25.315843A97.130172 97.130172 0 0 0 323.965288 43.398587c-2.583249 1.54995-4.649849 2.066599-5.166499 2.58325a72.795964 72.795964 0 0 0 13.432896 13.432896l0.51665 0.516649c10.332997 8.783047 20.149344 19.632694 19.632694 33.582241-0.51665 10.332997-6.716448 17.566095-17.049445 24.799192a29.862361 29.862361 0 0 1-18.082744 5.166499c-13.949546 0-32.54894-6.716448-50.115036-13.432896h-0.51665a58.123108 58.123108 0 0 0-23.765893-5.166499c-32.54894 0-53.214934 26.865792-59.414732 35.64884-19.116044 26.349142-28.932392 51.664985-39.265389 79.047427A685.439354 685.439354 0 0 1 156.984057 299.656912v1.0333a176.125933 176.125933 0 0 1-9.299698 50.631685c19.632694 18.082745 18.082745 42.365288 15.499496 61.997982v1.549949c-8.783047 33.06559 4.133199 39.782038 8.783047 41.848638l2.0666 1.54995 1.549949 1.549949A32.342281 32.342281 0 0 1 184.469828 490.300706a58.278103 58.278103 0 0 1-33.06559 39.782039h-0.51665a130.144097 130.144097 0 0 0-65.61453 52.698284c0.51665 0 1.54995 0.51665 2.066599 0.51665a3.099899 3.099899 0 0 0 2.066599-0.51665l0.51665-0.51665c21.699294-17.049445 40.298688-24.799193 57.348133-24.799192 23.765893 0 38.232089 17.049445 46.498487 25.832492l0.51665 0.51665 0.516649 0.51665c21.182644 29.965691 17.049445 56.831483-11.882946 80.080726a17.876085 17.876085 0 0 0-8.783048 13.949546c0 7.233098 6.716448 16.016145 17.049445 23.765893 13.432896 9.299697 21.699294 29.965691 17.566095 53.214935a55.953179 55.953179 0 0 1 17.566095 8.783047c0.51665 0 2.066599 0.51665 2.583249 0.51665 3.616549 0 6.716448-5.166498 8.783048-10.849647 6.199798-17.049445 19.116044-26.865792 33.58224-26.865792a32.910595 32.910595 0 0 1 28.932392 17.566095c3.616549 4.133199 6.716448 8.266398 10.332997 12.916246 1.54995 2.066599 3.616549 4.649849 5.166498 6.716448a84.730575 84.730575 0 0 0 12.916246-35.13219v-0.516649c3.616549-17.049445 18.082745-26.349142 38.232089-26.349143h8.266398a30.998991 30.998991 0 0 0 28.415741-4.649848 65.252876 65.252876 0 0 1 21.699294-9.299698 39.575378 39.575378 0 0 1 12.916246-2.066599c21.182644 0 35.64884 15.499495 37.715439 38.232089v4.133199c-2.066599 13.432896-5.166498 33.58224-3.616549 40.298688h2.583249a31.773966 31.773966 0 0 0 6.716448-0.51665 61.016347 61.016347 0 0 1 15.499496-2.066599 21.544299 21.544299 0 0 1 19.632694 9.299697c7.233098 10.849647 2.066599 22.215943-1.549949 30.482341l-0.51665 2.066599c-4.649849 10.332997-8.783047 19.116044-11.882947 27.899092a181.550757 181.550757 0 0 1-30.998991 55.281534c-23.765893 32.54894-22.215943 45.465187-21.182643 49.081736 11.882947-35.13219 30.482341-40.298688 40.298688-40.298689a39.058729 39.058729 0 0 1 19.116044 12.916247z" fill="#7A9DE7" p-id="1255"></path></svg>