<?xml version="1.0" standalone="no"?><!DOCTYPE svg PUBLIC "-//W3C//DTD SVG 1.1//EN" "http://www.w3.org/Graphics/SVG/1.1/DTD/svg11.dtd"><svg t="1774950308049" class="icon" viewBox="0 0 1893 1024" version="1.1" xmlns="http://www.w3.org/2000/svg" p-id="1574" xmlns:xlink="http://www.w3.org/1999/xlink" width="369.7265625" height="200"><path d="M431.270927 541.466758h164.896126v188.709463a286.209352 286.209352 0 0 1-48.974599 6.290315h-54.366297a489.296679 489.296679 0 0 1-120.863918-12.58063 165.345434 165.345434 0 0 1-80.426176-44.930825 191.854621 191.854621 0 0 1-44.930825-89.861649A598.478583 598.478583 0 0 1 232.676683 449.358568a498.282844 498.282844 0 0 1 16.175096-137.937632A202.18871 202.18871 0 0 1 297.826378 224.704445a175.230216 175.230216 0 0 1 83.571334-44.930824 480.759822 480.759822 0 0 1 121.313226-13.479248 934.111842 934.111842 0 0 1 126.704925 8.986165 701.370171 701.370171 0 0 1 118.168069 26.509187V31.5019a389.10094 389.10094 0 0 0-53.467682-13.029939C674.346688 14.428186 651.881275 11.283029 629.415863 9.036487s-44.930825-4.942391-71.440011-6.290315S509.001253 0.050323 485.637225 0.050323a842.003652 842.003652 0 0 0-202.638019 22.465412A374.273768 374.273768 0 0 0 130.683711 98.448828 333.386718 333.386718 0 0 0 34.082438 237.285076 586.34726 586.34726 0 0 0 0.38432 449.358568a643.409407 643.409407 0 0 0 32.799502 224.654122 314.515772 314.515772 0 0 0 94.354731 137.488323 351.808356 351.808356 0 0 0 150.518262 68.744162 971.853734 971.853734 0 0 0 200.840786 18.870946 1311.081459 1311.081459 0 0 0 175.679524-11.682014 898.61649 898.61649 0 0 0 138.836248-27.407803V381.513023H431.270927z m1061.266075-109.631212V426.893155A182.419148 182.419148 0 0 0 1603.06683 359.496919a195.449087 195.449087 0 0 0 30.552961-113.225678A289.803818 289.803818 0 0 0 1617.894003 144.727577a161.30166 161.30166 0 0 0-57.960764-73.686552 294.296901 294.296901 0 0 0-111.428445-44.930824 904.906806 904.906806 0 0 0-177.027448-13.479248H943.931635v873.904537h356.301438a771.462257 771.462257 0 0 0 176.578141-17.073713 292.499668 292.499668 0 0 0 110.979136-48.974599 172.085058 172.085058 0 0 0 58.410072-79.527559 327.096403 327.096403 0 0 0 16.624405-106.486054q0-163.548201-170.287825-202.638019z m-335.633259-266.889097h71.440011c34.147427 0 64.251079 0 89.861649 3.145157a171.63575 171.63575 0 0 1 60.656613 14.377864 76.382402 76.382402 0 0 1 34.596735 31.451577A115.472219 115.472219 0 0 1 1423.792841 269.63527a113.674986 113.674986 0 0 1-10.783398 53.018373 79.976868 79.976868 0 0 1-35.046043 31.451577 219.262424 219.262424 0 0 1-61.105922 15.725788 833.017487 833.017487 0 0 1-89.861649 4.043775h-70.092086zM1438.170704 677.157848a67.396237 67.396237 0 0 1-31.451577 33.698118 179.723298 179.723298 0 0 1-58.410072 17.073714 752.591311 752.591311 0 0 1-93.006806 4.94239h-98.398506v-221.508964h97.949197a673.962368 673.962368 0 0 1 93.456115 5.391699 176.57814 176.57814 0 0 1 59.757997 18.870946 75.034477 75.034477 0 0 1 30.552961 34.596735 128.05285 128.05285 0 0 1 8.986165 51.670448 134.792474 134.792474 0 0 1-9.435474 55.264914z" fill="#1296db" p-id="1575"></path></svg>